<svg xmlns="http://www.w3.org/2000/svg" width="256" height="256">
<rect width="256" height="256" fill="#aa8958"/>
<g stroke="#d0b47a" stroke-width="3" opacity=".55">
<path d="M0 0 V256"/><path d="M0 0 H256"/><path d="M8 0 V256"/><path d="M0 8 H256"/><path d="M16 0 V256"/><path d="M0 16 H256"/><path d="M24 0 V256"/><path d="M0 24 H256"/><path d="M32 0 V256"/><path d="M0 32 H256"/><path d="M40 0 V256"/><path d="M0 40 H256"/><path d="M48 0 V256"/><path d="M0 48 H256"/><path d="M56 0 V256"/><path d="M0 56 H256"/><path d="M64 0 V256"/><path d="M0 64 H256"/><path d="M72 0 V256"/><path d="M0 72 H256"/><path d="M80 0 V256"/><path d="M0 80 H256"/><path d="M88 0 V256"/><path d="M0 88 H256"/><path d="M96 0 V256"/><path d="M0 96 H256"/><path d="M104 0 V256"/><path d="M0 104 H256"/><path d="M112 0 V256"/><path d="M0 112 H256"/><path d="M120 0 V256"/><path d="M0 120 H256"/><path d="M128 0 V256"/><path d="M0 128 H256"/><path d="M136 0 V256"/><path d="M0 136 H256"/><path d="M144 0 V256"/><path d="M0 144 H256"/><path d="M152 0 V256"/><path d="M0 152 H256"/><path d="M160 0 V256"/><path d="M0 160 H256"/><path d="M168 0 V256"/><path d="M0 168 H256"/><path d="M176 0 V256"/><path d="M0 176 H256"/><path d="M184 0 V256"/><path d="M0 184 H256"/><path d="M192 0 V256"/><path d="M0 192 H256"/><path d="M200 0 V256"/><path d="M0 200 H256"/><path d="M208 0 V256"/><path d="M0 208 H256"/><path d="M216 0 V256"/><path d="M0 216 H256"/><path d="M224 0 V256"/><path d="M0 224 H256"/><path d="M232 0 V256"/><path d="M0 232 H256"/><path d="M240 0 V256"/><path d="M0 240 H256"/><path d="M248 0 V256"/><path d="M0 248 H256"/>
</g>
</svg>