<svg xmlns="http://www.w3.org/2000/svg" width="256" height="256">
<rect width="256" height="256" fill="#5a3b1e"/>
<g opacity=".45">
<circle cx="0" cy="0" r="2" fill="#392413"/><circle cx="37" cy="91" r="3" fill="#75502a"/><circle cx="74" cy="182" r="4" fill="#392413"/><circle cx="111" cy="17" r="5" fill="#75502a"/><circle cx="148" cy="108" r="6" fill="#392413"/><circle cx="185" cy="199" r="7" fill="#75502a"/><circle cx="222" cy="34" r="8" fill="#392413"/><circle cx="3" cy="125" r="9" fill="#75502a"/><circle cx="40" cy="216" r="2" fill="#392413"/><circle cx="77" cy="51" r="3" fill="#75502a"/><circle cx="114" cy="142" r="4" fill="#392413"/><circle cx="151" cy="233" r="5" fill="#75502a"/><circle cx="188" cy="68" r="6" fill="#392413"/><circle cx="225" cy="159" r="7" fill="#75502a"/><circle cx="6" cy="250" r="8" fill="#392413"/><circle cx="43" cy="85" r="9" fill="#75502a"/><circle cx="80" cy="176" r="2" fill="#392413"/><circle cx="117" cy="11" r="3" fill="#75502a"/><circle cx="154" cy="102" r="4" fill="#392413"/><circle cx="191" cy="193" r="5" fill="#75502a"/><circle cx="228" cy="28" r="6" fill="#392413"/><circle cx="9" cy="119" r="7" fill="#75502a"/><circle cx="46" cy="210" r="8" fill="#392413"/><circle cx="83" cy="45" r="9" fill="#75502a"/><circle cx="120" cy="136" r="2" fill="#392413"/><circle cx="157" cy="227" r="3" fill="#75502a"/><circle cx="194" cy="62" r="4" fill="#392413"/><circle cx="231" cy="153" r="5" fill="#75502a"/><circle cx="12" cy="244" r="6" fill="#392413"/><circle cx="49" cy="79" r="7" fill="#75502a"/><circle cx="86" cy="170" r="8" fill="#392413"/><circle cx="123" cy="5" r="9" fill="#75502a"/><circle cx="160" cy="96" r="2" fill="#392413"/><circle cx="197" cy="187" r="3" fill="#75502a"/><circle cx="234" cy="22" r="4" fill="#392413"/><circle cx="15" cy="113" r="5" fill="#75502a"/><circle cx="52" cy="204" r="6" fill="#392413"/><circle cx="89" cy="39" r="7" fill="#75502a"/><circle cx="126" cy="130" r="8" fill="#392413"/><circle cx="163" cy="221" r="9" fill="#75502a"/><circle cx="200" cy="56" r="2" fill="#392413"/><circle cx="237" cy="147" r="3" fill="#75502a"/><circle cx="18" cy="238" r="4" fill="#392413"/><circle cx="55" cy="73" r="5" fill="#75502a"/><circle cx="92" cy="164" r="6" fill="#392413"/><circle cx="129" cy="255" r="7" fill="#75502a"/><circle cx="166" cy="90" r="8" fill="#392413"/><circle cx="203" cy="181" r="9" fill="#75502a"/><circle cx="240" cy="16" r="2" fill="#392413"/><circle cx="21" cy="107" r="3" fill="#75502a"/><circle cx="58" cy="198" r="4" fill="#392413"/><circle cx="95" cy="33" r="5" fill="#75502a"/><circle cx="132" cy="124" r="6" fill="#392413"/><circle cx="169" cy="215" r="7" fill="#75502a"/><circle cx="206" cy="50" r="8" fill="#392413"/><circle cx="243" cy="141" r="9" fill="#75502a"/><circle cx="24" cy="232" r="2" fill="#392413"/><circle cx="61" cy="67" r="3" fill="#75502a"/><circle cx="98" cy="158" r="4" fill="#392413"/><circle cx="135" cy="249" r="5" fill="#75502a"/><circle cx="172" cy="84" r="6" fill="#392413"/><circle cx="209" cy="175" r="7" fill="#75502a"/><circle cx="246" cy="10" r="8" fill="#392413"/><circle cx="27" cy="101" r="9" fill="#75502a"/><circle cx="64" cy="192" r="2" fill="#392413"/><circle cx="101" cy="27" r="3" fill="#75502a"/><circle cx="138" cy="118" r="4" fill="#392413"/><circle cx="175" cy="209" r="5" fill="#75502a"/><circle cx="212" cy="44" r="6" fill="#392413"/><circle cx="249" cy="135" r="7" fill="#75502a"/><circle cx="30" cy="226" r="8" fill="#392413"/><circle cx="67" cy="61" r="9" fill="#75502a"/><circle cx="104" cy="152" r="2" fill="#392413"/><circle cx="141" cy="243" r="3" fill="#75502a"/><circle cx="178" cy="78" r="4" fill="#392413"/><circle cx="215" cy="169" r="5" fill="#75502a"/><circle cx="252" cy="4" r="6" fill="#392413"/><circle cx="33" cy="95" r="7" fill="#75502a"/><circle cx="70" cy="186" r="8" fill="#392413"/><circle cx="107" cy="21" r="9" fill="#75502a"/>
</g>
</svg>