<svg xmlns="http://www.w3.org/2000/svg" width="256" height="256">
<rect width="256" height="256" fill="#6e1510"/>
<g stroke="#2b0907" stroke-width="4">
<path d="M0 0 H256"/><path d="M0 24 H256"/><path d="M0 48 H256"/><path d="M0 72 H256"/><path d="M0 96 H256"/><path d="M0 120 H256"/><path d="M0 144 H256"/><path d="M0 168 H256"/><path d="M0 192 H256"/><path d="M0 216 H256"/><path d="M0 240 H256"/><path d="M0 264 H256"/>
<path d="M0 0 v24 m12 0 v24 m-12 0 v24 m12 0 v24 m-12 0 v24 m12 0 v24 m-12 0 v24 m12 0 v24"/><path d="M24 0 v24 m12 0 v24 m-12 0 v24 m12 0 v24 m-12 0 v24 m12 0 v24 m-12 0 v24 m12 0 v24"/><path d="M48 0 v24 m12 0 v24 m-12 0 v24 m12 0 v24 m-12 0 v24 m12 0 v24 m-12 0 v24 m12 0 v24"/><path d="M72 0 v24 m12 0 v24 m-12 0 v24 m12 0 v24 m-12 0 v24 m12 0 v24 m-12 0 v24 m12 0 v24"/><path d="M96 0 v24 m12 0 v24 m-12 0 v24 m12 0 v24 m-12 0 v24 m12 0 v24 m-12 0 v24 m12 0 v24"/><path d="M120 0 v24 m12 0 v24 m-12 0 v24 m12 0 v24 m-12 0 v24 m12 0 v24 m-12 0 v24 m12 0 v24"/><path d="M144 0 v24 m12 0 v24 m-12 0 v24 m12 0 v24 m-12 0 v24 m12 0 v24 m-12 0 v24 m12 0 v24"/><path d="M168 0 v24 m12 0 v24 m-12 0 v24 m12 0 v24 m-12 0 v24 m12 0 v24 m-12 0 v24 m12 0 v24"/><path d="M192 0 v24 m12 0 v24 m-12 0 v24 m12 0 v24 m-12 0 v24 m12 0 v24 m-12 0 v24 m12 0 v24"/><path d="M216 0 v24 m12 0 v24 m-12 0 v24 m12 0 v24 m-12 0 v24 m12 0 v24 m-12 0 v24 m12 0 v24"/><path d="M240 0 v24 m12 0 v24 m-12 0 v24 m12 0 v24 m-12 0 v24 m12 0 v24 m-12 0 v24 m12 0 v24"/><path d="M264 0 v24 m12 0 v24 m-12 0 v24 m12 0 v24 m-12 0 v24 m12 0 v24 m-12 0 v24 m12 0 v24"/>
</g>
<g fill="#a43a2d" opacity=".5">
<circle cx="0" cy="0" r="3"/><circle cx="47" cy="83" r="4"/><circle cx="94" cy="166" r="5"/><circle cx="141" cy="249" r="6"/><circle cx="188" cy="76" r="7"/><circle cx="235" cy="159" r="3"/><circle cx="26" cy="242" r="4"/><circle cx="73" cy="69" r="5"/><circle cx="120" cy="152" r="6"/><circle cx="167" cy="235" r="7"/><circle cx="214" cy="62" r="3"/><circle cx="5" cy="145" r="4"/><circle cx="52" cy="228" r="5"/><circle cx="99" cy="55" r="6"/><circle cx="146" cy="138" r="7"/><circle cx="193" cy="221" r="3"/><circle cx="240" cy="48" r="4"/><circle cx="31" cy="131" r="5"/><circle cx="78" cy="214" r="6"/><circle cx="125" cy="41" r="7"/><circle cx="172" cy="124" r="3"/><circle cx="219" cy="207" r="4"/><circle cx="10" cy="34" r="5"/><circle cx="57" cy="117" r="6"/><circle cx="104" cy="200" r="7"/><circle cx="151" cy="27" r="3"/><circle cx="198" cy="110" r="4"/><circle cx="245" cy="193" r="5"/><circle cx="36" cy="20" r="6"/><circle cx="83" cy="103" r="7"/><circle cx="130" cy="186" r="3"/><circle cx="177" cy="13" r="4"/><circle cx="224" cy="96" r="5"/><circle cx="15" cy="179" r="6"/><circle cx="62" cy="6" r="7"/><circle cx="109" cy="89" r="3"/><circle cx="156" cy="172" r="4"/><circle cx="203" cy="255" r="5"/><circle cx="250" cy="82" r="6"/><circle cx="41" cy="165" r="7"/>
</g>
</svg>